<svg version="1.1" id="Layer_1" xmlns="http://www.w3.org/2000/svg" xmlns:xlink="http://www.w3.org/1999/xlink" x="0px" y="0px"
	 width="100%" viewBox="0 0 2100 366" enable-background="new 0 0 2100 366" xml:space="preserve">
<path fill="#000000" opacity="1.000000" stroke="none" 
	d="
M1584.000000,367.000000 
	C1056.053345,367.000000 528.606750,367.000000 1.080081,367.000000 
	C1.080081,245.065781 1.080081,123.131493 1.080081,1.098603 
	C701.000000,1.098603 1401.000000,1.098603 2100.973389,1.098603 
	C2100.973389,123.060143 2100.973389,245.030075 2100.973389,367.000000 
	C1928.797852,367.000000 1756.648926,367.000000 1584.000000,367.000000 
M715.920654,274.502411 
	C715.920654,274.502411 715.872253,274.048737 715.999268,273.112732 
	C716.018799,226.709442 716.048035,180.306152 716.048340,133.902863 
	C716.048401,125.922905 715.924927,117.942940 715.814209,109.514107 
	C715.649597,109.207115 715.395508,109.082214 714.119324,108.982147 
	C700.866028,108.982147 687.612732,108.982147 673.960083,108.982147 
	C673.960083,111.137642 673.960083,112.779617 673.960144,114.421585 
	C673.960815,163.209747 673.962646,211.997910 673.959106,260.786072 
	C673.958862,264.115570 674.302673,267.501404 673.825195,270.764282 
	C672.213379,281.778534 672.151367,284.567078 659.869751,286.327576 
	C657.854248,286.616486 655.714539,286.038330 653.382935,285.839661 
	C653.382935,296.231567 653.382935,306.430054 653.382935,317.596130 
	C665.332764,316.722748 676.973877,316.709808 688.306335,314.833069 
	C702.708679,312.447906 712.103027,303.810822 714.323181,288.725403 
	C714.995300,284.158569 715.341980,279.543793 715.920654,274.502411 
M1242.995483,126.582016 
	C1235.374390,105.192505 1227.701660,83.821114 1220.187988,62.393967 
	C1219.058960,59.174683 1217.598633,57.726933 1213.906128,57.797813 
	C1200.912476,58.047249 1187.906006,58.105179 1174.915527,57.785088 
	C1170.036133,57.664852 1168.769287,59.220955 1168.779785,63.990147 
	C1168.923462,129.648254 1168.873535,195.306778 1168.891968,260.965210 
	C1168.892456,262.884521 1169.119263,264.803741 1169.260376,267.034943 
	C1180.514526,267.034943 1191.174927,266.759399 1201.810425,267.154816 
	C1206.889160,267.343628 1208.241699,265.827789 1208.219360,260.776703 
	C1208.025635,216.949722 1208.108276,173.121536 1208.108643,129.293701 
	C1208.108643,127.563614 1208.108643,125.833534 1208.108643,124.103447 
	C1208.410767,124.050041 1208.712891,123.996628 1209.015015,123.943214 
	C1225.765869,171.545776 1242.516846,219.148331 1259.204346,266.570801 
	C1275.597290,266.570801 1291.652100,266.570801 1308.122925,266.570801 
	C1308.122925,264.291382 1308.123047,262.475769 1308.123047,260.660187 
	C1308.123413,215.165894 1308.124268,169.671616 1308.123901,124.177322 
	C1308.123657,103.846542 1308.022705,83.514900 1308.200562,63.185699 
	C1308.236938,59.028473 1306.922119,57.695091 1302.791260,57.814987 
	C1293.799927,58.075958 1284.795776,57.885895 1275.796875,57.895226 
	C1268.916504,57.902355 1268.896362,57.912624 1268.895264,64.615898 
	C1268.888550,106.777275 1268.891357,148.938644 1268.890991,191.100021 
	C1268.890991,193.002518 1268.891113,194.905014 1268.891113,196.807510 
	C1268.605835,196.854538 1268.320557,196.901566 1268.035156,196.948578 
	C1259.784424,173.736664 1251.533569,150.524734 1242.995483,126.582016 
M1421.897461,218.938690 
	C1420.363770,223.970535 1418.980591,228.776703 1414.327759,232.399246 
	C1407.728149,237.537491 1400.555786,238.422623 1392.732544,237.743942 
	C1381.335815,236.755249 1373.751465,230.108521 1372.087769,219.035904 
	C1371.351196,214.132706 1371.178467,209.124924 1371.056519,204.157089 
	C1370.987793,201.360168 1370.419922,199.884735 1367.177856,199.922882 
	C1355.349976,200.062073 1343.519043,200.035873 1331.690430,199.934937 
	C1328.847900,199.910706 1327.993530,201.052017 1327.896973,203.765518 
	C1327.534546,213.949905 1328.029419,224.044357 1331.099243,233.821960 
	C1336.259766,250.257812 1347.177246,261.397400 1363.716797,265.852631 
	C1383.654541,271.223206 1404.004883,270.983643 1424.037598,266.209503 
	C1442.648315,261.774292 1457.375122,251.635574 1463.095093,232.514679 
	C1465.801758,223.467346 1466.497925,213.656723 1466.972168,204.135513 
	C1468.129150,180.907715 1456.702881,164.906311 1436.359009,155.098572 
	C1421.127075,147.755402 1405.513306,141.202255 1390.048706,134.344406 
	C1378.440308,129.196564 1373.634766,120.097115 1373.963623,107.678734 
	C1374.181396,99.447205 1376.756104,92.394966 1384.358154,88.687759 
	C1392.273804,84.827591 1400.772583,84.513763 1408.746704,88.777481 
	C1411.205322,90.092110 1413.729126,92.615967 1414.670776,95.160606 
	C1416.652832,100.516373 1417.988770,106.195396 1418.832520,111.854668 
	C1419.295044,114.957848 1420.003662,116.242386 1423.255127,116.169365 
	C1430.582275,116.004837 1437.915771,116.127556 1445.246704,116.128433 
	C1460.751343,116.130287 1461.203125,116.091759 1459.907959,100.371429 
	C1458.388672,81.930893 1449.093140,67.639328 1432.232300,60.233761 
	C1411.008057,50.911743 1388.635986,51.154808 1366.625732,57.835476 
	C1350.846436,62.624905 1339.779663,73.047997 1334.522949,89.021530 
	C1331.479858,98.269119 1330.816406,107.792648 1330.838257,117.501060 
	C1330.892822,141.711517 1341.472046,159.147110 1363.494263,169.309845 
	C1371.911499,173.194275 1380.603760,176.484146 1389.179077,180.024612 
	C1393.319458,181.734024 1397.457397,183.452621 1401.634033,185.069962 
	C1416.762085,190.928024 1423.813110,201.736435 1421.897461,218.938690 
M1701.875366,67.553299 
	C1701.875366,133.947723 1701.875366,200.342148 1701.875366,266.497375 
	C1703.257812,266.805206 1703.582886,266.940735 1703.907959,266.941010 
	C1742.073608,266.974823 1780.239136,266.977051 1818.404663,267.065887 
	C1821.299072,267.072632 1822.148926,265.889313 1822.122681,263.203278 
	C1822.039795,254.704224 1821.869019,246.194839 1822.197632,237.707474 
	C1822.375244,233.120392 1820.888672,231.751358 1816.299316,231.797577 
	C1794.801758,232.014114 1773.300659,231.897751 1751.800903,231.888153 
	C1745.152466,231.885178 1745.133789,231.867615 1745.128296,225.437469 
	C1745.116333,211.270920 1745.115112,197.104370 1745.137817,182.937851 
	C1745.140625,181.156311 1745.314575,179.375031 1745.443848,176.943527 
	C1768.738159,176.943527 1791.627441,176.943527 1814.561279,176.943527 
	C1814.561279,164.888504 1814.561279,153.517685 1814.561279,141.892105 
	C1812.123535,141.892105 1810.130249,141.892197 1808.136963,141.892090 
	C1788.970459,141.891113 1769.802368,141.759567 1750.638550,141.986084 
	C1746.164429,142.038971 1744.950439,140.596603 1745.036499,136.272202 
	C1745.288574,123.610657 1745.114502,110.940849 1745.143066,98.274361 
	C1745.146606,96.670082 1745.362549,95.066292 1745.525269,92.846069 
	C1770.188721,92.846069 1794.416870,92.846069 1819.067749,92.846069 
	C1819.067749,82.884285 1818.804321,73.562897 1819.174316,64.266724 
	C1819.371826,59.303734 1818.003174,57.737957 1812.831177,57.773190 
	C1778.666382,58.005894 1744.499268,57.865475 1710.332886,57.910130 
	C1700.921387,57.922428 1701.991089,56.817238 1701.875366,67.553299 
M293.597778,57.891243 
	C285.883453,57.919456 285.876556,57.919456 285.876312,65.802399 
	C285.874451,130.453522 285.871918,195.104645 285.889496,259.755768 
	C285.890106,262.023987 286.098755,264.292114 286.217346,266.701263 
	C300.623077,266.701263 314.526123,266.701263 329.104126,266.701263 
	C329.104126,239.150818 329.104126,211.924072 329.104126,184.035767 
	C332.050201,184.035767 334.338989,184.179489 336.604767,184.011871 
	C349.109985,183.086777 361.795441,183.102097 374.065125,180.858963 
	C390.177032,177.913422 403.120270,169.522675 410.255981,153.801041 
	C420.481506,131.271591 420.126343,108.433975 410.528870,86.217148 
	C402.941132,68.652451 387.786957,58.904865 369.034058,58.000198 
	C344.269318,56.805511 319.397827,57.823963 293.597778,57.891243 
M594.262939,269.123718 
	C598.197205,268.835358 602.153259,268.720398 606.061890,268.228455 
	C622.409607,266.170837 634.634521,258.146820 642.096924,243.199631 
	C648.133911,231.107635 650.238403,218.173157 651.302429,204.847916 
	C652.991638,183.694412 652.711243,162.680374 647.011841,142.142578 
	C641.394836,121.901619 628.926453,108.377151 607.155457,105.800224 
	C598.795715,104.810722 590.286011,104.923866 581.842041,104.854462 
	C572.775146,104.779938 564.206543,107.219772 556.403320,111.718727 
	C542.953979,119.473007 535.854614,131.765549 531.939514,146.447739 
	C527.111084,164.555038 527.578491,182.989594 528.010010,201.403702 
	C528.317444,214.525330 530.166992,227.511276 535.021790,239.837494 
	C539.953552,252.359283 548.545166,261.233826 561.387878,265.925659 
	C571.804749,269.731262 582.565186,269.173615 594.262939,269.123718 
M796.379822,241.930344 
	C793.336487,240.506180 789.438965,239.839340 787.392517,237.531265 
	C776.554016,225.307251 778.555115,210.239914 778.198792,194.939301 
	C805.199768,194.939301 831.421631,194.939301 857.541748,194.939301 
	C859.132690,183.419388 856.147949,149.721924 852.772095,139.527084 
	C847.395508,123.290527 837.267456,111.347389 820.581299,106.994675 
	C811.936890,104.739731 802.520813,105.133545 793.439514,104.922501 
	C767.932434,104.329735 748.258606,118.965073 741.884094,143.710617 
	C734.638794,171.836807 735.245056,200.355759 740.458191,228.630798 
	C744.203308,248.944122 756.498352,263.339813 777.170105,267.304901 
	C789.144958,269.601776 801.978577,269.384827 814.190979,268.088074 
	C843.434753,264.982941 854.157349,240.121445 854.961914,216.395767 
	C854.999634,215.283997 853.383606,213.138885 852.505066,213.121445 
	C841.219055,212.897400 829.927063,212.973389 818.447449,212.973389 
	C817.884155,215.863144 817.417725,218.277252 816.942749,220.689713 
	C814.679138,232.187225 809.838318,242.568085 796.379822,241.930344 
M1595.972534,137.500000 
	C1595.973389,178.814407 1596.033203,220.129013 1595.887695,261.442902 
	C1595.872437,265.766632 1596.997803,267.260986 1601.477295,267.131897 
	C1612.130249,266.824951 1622.806885,266.779968 1633.455811,267.148804 
	C1638.265747,267.315399 1639.249023,265.544769 1639.223999,261.163422 
	C1639.064453,233.343719 1639.144043,205.522644 1639.144653,177.702026 
	C1639.145142,151.713913 1639.140259,125.725792 1639.148804,99.737671 
	C1639.151123,93.048622 1639.170410,93.041283 1646.039429,93.037231 
	C1657.201050,93.030647 1668.362549,93.045975 1679.524170,93.022758 
	C1681.277710,93.019112 1683.031128,92.861145 1685.037720,92.762016 
	C1685.037720,82.520401 1684.859009,72.863953 1685.121704,63.219528 
	C1685.234375,59.086620 1683.929321,57.772106 1679.769775,57.814922 
	C1661.446777,58.003517 1643.120728,57.892487 1624.795776,57.892838 
	C1601.806274,57.893272 1578.816772,57.901962 1555.827271,57.890881 
	C1553.228760,57.889629 1550.812256,57.710564 1550.872803,61.578632 
	C1551.018555,70.905281 1550.968506,80.236046 1550.896484,89.564369 
	C1550.876587,92.146790 1551.927246,93.096375 1554.470825,93.050766 
	C1560.132935,92.949249 1565.798218,93.032341 1571.462280,93.034470 
	C1579.410156,93.037453 1587.357910,93.035217 1595.972534,93.035217 
	C1595.972534,107.955193 1595.972534,122.227600 1595.972534,137.500000 
M933.548096,104.889069 
	C928.608643,105.162949 923.618042,105.078384 918.738647,105.773544 
	C898.933044,108.595146 885.936768,119.834328 878.657471,138.319473 
	C872.654663,153.563293 871.063660,169.432526 870.969238,185.585541 
	C870.860168,204.235107 871.906372,222.726044 878.901978,240.344177 
	C883.791565,252.658478 892.050659,261.455505 904.765930,266.082672 
	C915.887146,270.129761 927.342834,269.357605 938.712097,269.064026 
	C965.678711,268.367676 981.437866,258.104279 988.358276,233.157623 
	C990.739319,224.574615 991.234070,215.468307 992.660339,206.144394 
	C978.283203,206.144394 965.384155,206.144394 952.301819,206.144394 
	C952.183533,207.412354 952.134460,208.388885 951.995789,209.352524 
	C950.985535,216.375961 950.554932,223.552505 948.776917,230.377350 
	C946.747864,238.165421 940.786804,241.919495 932.832275,241.940155 
	C924.790344,241.961029 918.759094,238.333420 917.007690,230.283829 
	C914.663452,219.509811 912.730042,208.466858 912.383911,197.483826 
	C911.967285,184.261078 912.964783,170.939468 914.188782,157.738419 
	C915.006470,148.919571 917.338013,140.390121 926.877380,136.234299 
	C935.025391,132.684586 944.458862,135.397522 947.857727,143.503296 
	C949.988525,148.584854 951.162537,154.229309 951.801392,159.733139 
	C952.571106,166.365341 952.128479,166.435608 959.009399,166.455307 
	C966.839111,166.477707 974.669006,166.464371 982.498779,166.462051 
	C992.356506,166.459137 992.347168,166.458252 991.218567,156.860550 
	C991.082825,155.705948 991.188293,154.523285 991.057312,153.367767 
	C989.135193,136.408752 982.468689,122.027596 967.813049,112.401596 
	C957.742065,105.786842 946.350281,104.091980 933.548096,104.889069 
M1967.003418,182.500000 
	C1967.003174,143.016647 1966.929199,103.532974 1967.101440,64.050369 
	C1967.121704,59.401447 1966.112549,57.701435 1961.108765,57.777325 
	C1942.121094,58.065285 1923.126465,57.885536 1904.134521,57.904064 
	C1902.531006,57.905628 1900.927734,58.080837 1899.273193,58.178387 
	C1899.273193,68.252647 1899.273193,77.848595 1899.273193,88.036110 
	C1907.488281,88.036110 1915.436035,88.029518 1923.383789,88.038185 
	C1929.824219,88.045204 1929.840088,88.053345 1929.840576,94.615265 
	C1929.845337,157.088898 1929.845215,219.562531 1929.843506,282.036163 
	C1929.843384,289.884155 1929.835449,289.886963 1922.033569,289.890747 
	C1914.447266,289.894440 1906.860962,289.891571 1898.996094,289.891571 
	C1898.996094,298.541809 1899.211060,306.370880 1898.908691,314.179901 
	C1898.748901,318.305847 1900.395752,319.195679 1904.129272,319.168610 
	C1922.953735,319.032227 1941.779541,319.114685 1960.604980,319.104950 
	C1966.986572,319.101654 1967.000244,319.081055 1967.000977,312.445557 
	C1967.005249,269.463715 1967.003296,226.481857 1967.003418,182.500000 
M171.002731,164.500000 
	C171.002731,139.229736 171.002731,113.959457 171.002731,87.874504 
	C181.375504,87.874504 191.070450,87.874504 201.114075,87.874504 
	C201.114075,79.071823 200.907059,71.077599 201.197388,63.101482 
	C201.353363,58.816181 199.698120,57.782486 195.691864,57.820232 
	C177.531387,57.991333 159.368362,57.889587 141.206253,57.894073 
	C133.860992,57.895889 133.846725,57.905209 133.846405,65.189293 
	C133.842896,147.335342 133.844025,229.481400 133.844879,311.627441 
	C133.844894,312.793793 133.943268,313.967255 133.847275,315.125092 
	C133.590958,318.216736 135.097519,319.142670 138.012848,319.132050 
	C157.674271,319.060425 177.336212,319.058716 196.997620,319.132660 
	C199.945679,319.143738 201.204636,318.162201 201.144714,315.094360 
	C201.008102,308.098846 200.985306,301.095978 201.155090,294.101898 
	C201.236389,290.753418 199.821014,289.786591 196.692795,289.857574 
	C190.197891,290.004974 183.671814,289.539734 177.206696,290.001068 
	C171.929642,290.377625 170.878372,288.351837 170.901047,283.469910 
	C171.083572,244.147293 171.002960,204.823471 171.002731,164.500000 
M1020.881653,148.535461 
	C1020.874573,176.356979 1020.809753,204.178726 1020.912537,231.999832 
	C1020.931458,237.123596 1021.392029,242.276230 1022.064148,247.360611 
	C1023.419250,257.611420 1030.034790,264.658142 1040.237915,266.163635 
	C1046.096924,267.028107 1052.110352,266.980347 1058.058472,267.073975 
	C1066.824219,267.211945 1075.593750,267.109558 1084.688965,267.109558 
	C1084.688965,256.761749 1084.688965,247.078293 1084.688965,237.733963 
	C1080.958618,237.733963 1077.655884,237.805786 1074.357178,237.719391 
	C1066.918823,237.524536 1063.059692,234.015961 1062.182373,226.656937 
	C1061.985962,225.009628 1062.013916,223.330292 1062.013428,221.665680 
	C1062.004761,195.510040 1062.001587,169.354416 1062.022827,143.198792 
	C1062.024414,141.276443 1062.221680,139.354279 1062.350220,137.029236 
	C1068.901978,137.029236 1074.880371,136.939301 1080.854004,137.068909 
	C1083.651367,137.129593 1085.212402,136.500504 1085.137573,133.255569 
	C1084.980103,126.428795 1084.988281,119.593712 1085.133789,112.766418 
	C1085.201782,109.573410 1083.684937,108.800011 1080.864014,108.871094 
	C1076.202515,108.988564 1071.527100,108.717049 1066.873535,108.941574 
	C1063.247925,109.116501 1061.768555,107.946953 1061.942627,104.133278 
	C1062.208130,98.314583 1062.008789,92.474724 1062.008179,86.643852 
	C1062.007324,79.539734 1062.008057,72.435616 1062.008057,64.897629 
	C1049.527100,64.897629 1037.727295,65.034492 1025.933716,64.820992 
	C1021.979309,64.749397 1020.704895,66.080864 1020.816223,69.977913 
	C1021.049316,78.134422 1020.882446,86.302315 1020.881897,94.465538 
	C1020.880981,108.882240 1020.881653,108.882416 1006.702881,108.891640 
	C1004.600952,108.893005 1002.499084,108.891830 1000.427063,108.891830 
	C1000.427063,118.663025 1000.427063,127.711838 1000.427063,137.035599 
	C1004.013123,137.035599 1007.169128,137.035507 1010.325073,137.035614 
	C1020.880005,137.035980 1020.880005,137.036011 1020.881653,148.535461 
M1488.996582,146.500000 
	C1488.996582,186.573212 1488.996582,226.646439 1488.996582,266.628967 
	C1503.772461,266.628967 1517.681030,266.628967 1531.755371,266.628967 
	C1531.897949,264.933899 1532.103271,263.628479 1532.103638,262.322968 
	C1532.119385,195.828812 1532.085327,129.334595 1532.195435,62.840633 
	C1532.202271,58.755184 1530.705322,57.767742 1526.947632,57.831459 
	C1516.118408,58.015102 1505.277832,58.106697 1494.454468,57.794102 
	C1489.935059,57.663574 1488.880737,59.217880 1488.908447,63.507782 
	C1489.083862,90.837578 1488.997070,118.169067 1488.996582,146.500000 
M477.986542,164.584763 
	C479.680237,153.920334 489.686676,144.999466 500.836304,144.521225 
	C506.732056,144.268341 512.647644,144.476486 519.090271,144.476486 
	C519.090271,131.451477 519.151611,119.493813 518.967896,107.539902 
	C518.953918,106.631683 517.279053,105.077820 516.244568,104.957687 
	C501.899567,103.291725 489.838104,107.367096 481.116699,119.448029 
	C479.431885,121.781845 477.684326,124.070320 475.130127,127.502525 
	C475.130127,121.771675 474.998901,117.480270 475.172974,113.201294 
	C475.304810,109.959923 474.030762,108.808151 470.805878,108.854103 
	C461.313599,108.989319 451.809479,109.134377 442.327332,108.793549 
	C437.456055,108.618462 435.764862,109.842133 435.787506,115.095703 
	C435.997009,163.732178 435.907654,212.369919 435.925049,261.007294 
	C435.925751,262.923645 436.127625,264.839935 436.251526,267.035217 
	C448.209869,267.035217 459.535278,266.760101 470.836823,267.159363 
	C475.948761,267.339996 477.257629,265.790741 477.218597,260.773743 
	C476.989258,231.293289 477.086731,201.810104 477.137482,172.327957 
	C477.141418,170.032211 477.630707,167.737305 477.986542,164.584763 
M708.400391,55.896221 
	C697.116211,55.896221 685.832031,55.896221 674.320679,55.896221 
	C674.320679,67.686752 674.320679,79.065865 674.320679,90.614655 
	C688.369751,90.614655 702.057312,90.614655 716.054810,90.614655 
	C716.054810,81.053711 716.059631,71.907669 716.053162,62.761623 
	C716.048340,55.967850 716.041809,55.967854 708.400391,55.896221 
z"/>
<path fill="#733F3F" opacity="1.000000" stroke="none" 
	d="
M1243.139160,126.947418 
	C1251.533569,150.524734 1259.784424,173.736664 1268.035156,196.948578 
	C1268.320557,196.901566 1268.605835,196.854538 1268.891113,196.807510 
	C1268.891113,194.905014 1268.890991,193.002518 1268.890991,191.100021 
	C1268.891357,148.938644 1268.888550,106.777275 1268.895264,64.615898 
	C1268.896362,57.912624 1268.916504,57.902355 1275.796875,57.895226 
	C1284.795776,57.885895 1293.799927,58.075958 1302.791260,57.814987 
	C1306.922119,57.695091 1308.236938,59.028473 1308.200562,63.185699 
	C1308.022705,83.514900 1308.123657,103.846542 1308.123901,124.177322 
	C1308.124268,169.671616 1308.123413,215.165894 1308.123047,260.660187 
	C1308.123047,262.475769 1308.122925,264.291382 1308.122925,266.570801 
	C1291.652100,266.570801 1275.597290,266.570801 1259.204346,266.570801 
	C1242.516846,219.148331 1225.765869,171.545776 1209.015015,123.943214 
	C1208.712891,123.996628 1208.410767,124.050041 1208.108643,124.103447 
	C1208.108643,125.833534 1208.108643,127.563614 1208.108643,129.293701 
	C1208.108276,173.121536 1208.025635,216.949722 1208.219360,260.776703 
	C1208.241699,265.827789 1206.889160,267.343628 1201.810425,267.154816 
	C1191.174927,266.759399 1180.514526,267.034943 1169.260376,267.034943 
	C1169.119263,264.803741 1168.892456,262.884521 1168.891968,260.965210 
	C1168.873535,195.306778 1168.923462,129.648254 1168.779785,63.990147 
	C1168.769287,59.220955 1170.036133,57.664852 1174.915527,57.785088 
	C1187.906006,58.105179 1200.912476,58.047249 1213.906128,57.797813 
	C1217.598633,57.726933 1219.058960,59.174683 1220.187988,62.393967 
	C1227.701660,83.821114 1235.374390,105.192505 1243.139160,126.947418 
z"/>
<path fill="#733F3F" opacity="1.000000" stroke="none" 
	d="
M1421.930176,218.492676 
	C1423.813110,201.736435 1416.762085,190.928024 1401.634033,185.069962 
	C1397.457397,183.452621 1393.319458,181.734024 1389.179077,180.024612 
	C1380.603760,176.484146 1371.911499,173.194275 1363.494263,169.309845 
	C1341.472046,159.147110 1330.892822,141.711517 1330.838257,117.501060 
	C1330.816406,107.792648 1331.479858,98.269119 1334.522949,89.021530 
	C1339.779663,73.047997 1350.846436,62.624905 1366.625732,57.835476 
	C1388.635986,51.154808 1411.008057,50.911743 1432.232300,60.233761 
	C1449.093140,67.639328 1458.388672,81.930893 1459.907959,100.371429 
	C1461.203125,116.091759 1460.751343,116.130287 1445.246704,116.128433 
	C1437.915771,116.127556 1430.582275,116.004837 1423.255127,116.169365 
	C1420.003662,116.242386 1419.295044,114.957848 1418.832520,111.854668 
	C1417.988770,106.195396 1416.652832,100.516373 1414.670776,95.160606 
	C1413.729126,92.615967 1411.205322,90.092110 1408.746704,88.777481 
	C1400.772583,84.513763 1392.273804,84.827591 1384.358154,88.687759 
	C1376.756104,92.394966 1374.181396,99.447205 1373.963623,107.678734 
	C1373.634766,120.097115 1378.440308,129.196564 1390.048706,134.344406 
	C1405.513306,141.202255 1421.127075,147.755402 1436.359009,155.098572 
	C1456.702881,164.906311 1468.129150,180.907715 1466.972168,204.135513 
	C1466.497925,213.656723 1465.801758,223.467346 1463.095093,232.514679 
	C1457.375122,251.635574 1442.648315,261.774292 1424.037598,266.209503 
	C1404.004883,270.983643 1383.654541,271.223206 1363.716797,265.852631 
	C1347.177246,261.397400 1336.259766,250.257812 1331.099243,233.821960 
	C1328.029419,224.044357 1327.534546,213.949905 1327.896973,203.765518 
	C1327.993530,201.052017 1328.847900,199.910706 1331.690430,199.934937 
	C1343.519043,200.035873 1355.349976,200.062073 1367.177856,199.922882 
	C1370.419922,199.884735 1370.987793,201.360168 1371.056519,204.157089 
	C1371.178467,209.124924 1371.351196,214.132706 1372.087769,219.035904 
	C1373.751465,230.108521 1381.335815,236.755249 1392.732544,237.743942 
	C1400.555786,238.422623 1407.728149,237.537491 1414.327759,232.399246 
	C1418.980591,228.776703 1420.363770,223.970535 1421.930176,218.492676 
z"/>
<path fill="#733F3F" opacity="1.000000" stroke="none" 
	d="
M1701.875366,67.062485 
	C1701.991089,56.817238 1700.921387,57.922428 1710.332886,57.910130 
	C1744.499268,57.865475 1778.666382,58.005894 1812.831177,57.773190 
	C1818.003174,57.737957 1819.371826,59.303734 1819.174316,64.266724 
	C1818.804321,73.562897 1819.067749,82.884285 1819.067749,92.846069 
	C1794.416870,92.846069 1770.188721,92.846069 1745.525269,92.846069 
	C1745.362549,95.066292 1745.146606,96.670082 1745.143066,98.274361 
	C1745.114502,110.940849 1745.288574,123.610657 1745.036499,136.272202 
	C1744.950439,140.596603 1746.164429,142.038971 1750.638550,141.986084 
	C1769.802368,141.759567 1788.970459,141.891113 1808.136963,141.892090 
	C1810.130249,141.892197 1812.123535,141.892105 1814.561279,141.892105 
	C1814.561279,153.517685 1814.561279,164.888504 1814.561279,176.943527 
	C1791.627441,176.943527 1768.738159,176.943527 1745.443848,176.943527 
	C1745.314575,179.375031 1745.140625,181.156311 1745.137817,182.937851 
	C1745.115112,197.104370 1745.116333,211.270920 1745.128296,225.437469 
	C1745.133789,231.867615 1745.152466,231.885178 1751.800903,231.888153 
	C1773.300659,231.897751 1794.801758,232.014114 1816.299316,231.797577 
	C1820.888672,231.751358 1822.375244,233.120392 1822.197632,237.707474 
	C1821.869019,246.194839 1822.039795,254.704224 1822.122681,263.203278 
	C1822.148926,265.889313 1821.299072,267.072632 1818.404663,267.065887 
	C1780.239136,266.977051 1742.073608,266.974823 1703.907959,266.941010 
	C1703.582886,266.940735 1703.257812,266.805206 1701.875366,266.497375 
	C1701.875366,200.342148 1701.875366,133.947723 1701.875366,67.062485 
z"/>
<path fill="#733F3F" opacity="1.000000" stroke="none" 
	d="
M294.084991,57.891159 
	C319.397827,57.823963 344.269318,56.805511 369.034058,58.000198 
	C387.786957,58.904865 402.941132,68.652451 410.528870,86.217148 
	C420.126343,108.433975 420.481506,131.271591 410.255981,153.801041 
	C403.120270,169.522675 390.177032,177.913422 374.065125,180.858963 
	C361.795441,183.102097 349.109985,183.086777 336.604767,184.011871 
	C334.338989,184.179489 332.050201,184.035767 329.104126,184.035767 
	C329.104126,211.924072 329.104126,239.150818 329.104126,266.701263 
	C314.526123,266.701263 300.623077,266.701263 286.217346,266.701263 
	C286.098755,264.292114 285.890106,262.023987 285.889496,259.755768 
	C285.871918,195.104645 285.874451,130.453522 285.876312,65.802399 
	C285.876556,57.919456 285.883453,57.919456 294.084991,57.891159 
M329.138306,148.122559 
	C328.896973,150.925781 330.239105,152.081192 332.972992,151.882568 
	C339.073090,151.439362 345.186707,151.147675 351.274414,150.576645 
	C362.389740,149.533997 370.286011,143.182785 372.853027,132.445923 
	C375.040192,123.297859 374.934967,113.969879 371.717163,104.992706 
	C369.440460,98.641212 365.526581,92.875366 358.611969,91.770554 
	C349.095184,90.249969 339.351532,90.149284 329.125854,89.397728 
	C329.125854,109.639168 329.125854,128.417099 329.138306,148.122559 
z"/>
<path fill="#733F3F" opacity="1.000000" stroke="none" 
	d="
M593.790710,269.120941 
	C582.565186,269.173615 571.804749,269.731262 561.387878,265.925659 
	C548.545166,261.233826 539.953552,252.359283 535.021790,239.837494 
	C530.166992,227.511276 528.317444,214.525330 528.010010,201.403702 
	C527.578491,182.989594 527.111084,164.555038 531.939514,146.447739 
	C535.854614,131.765549 542.953979,119.473007 556.403320,111.718727 
	C564.206543,107.219772 572.775146,104.779938 581.842041,104.854462 
	C590.286011,104.923866 598.795715,104.810722 607.155457,105.800224 
	C628.926453,108.377151 641.394836,121.901619 647.011841,142.142578 
	C652.711243,162.680374 652.991638,183.694412 651.302429,204.847916 
	C650.238403,218.173157 648.133911,231.107635 642.096924,243.199631 
	C634.634521,258.146820 622.409607,266.170837 606.061890,268.228455 
	C602.153259,268.720398 598.197205,268.835358 593.790710,269.120941 
M610.932983,186.506958 
	C610.246521,176.425735 610.316345,166.214127 608.608337,156.309036 
	C607.465881,149.684006 605.178162,142.319183 600.961060,137.363235 
	C593.004150,128.012314 577.150391,132.798355 573.287659,145.439102 
	C570.994446,152.943619 569.717285,160.948364 569.312622,168.796722 
	C568.670776,181.246689 568.689026,193.776627 569.309326,206.228821 
	C569.692444,213.918060 571.013123,221.739792 573.268738,229.085724 
	C574.515015,233.144592 577.846741,237.545151 581.479248,239.698059 
	C590.923218,245.295303 603.916077,241.896988 606.691895,226.919678 
	C609.093262,213.962784 609.592957,200.653427 610.932983,186.506958 
z"/>
<path fill="#733F3F" opacity="1.000000" stroke="none" 
	d="
M796.779419,241.936783 
	C809.838318,242.568085 814.679138,232.187225 816.942749,220.689713 
	C817.417725,218.277252 817.884155,215.863144 818.447449,212.973389 
	C829.927063,212.973389 841.219055,212.897400 852.505066,213.121445 
	C853.383606,213.138885 854.999634,215.283997 854.961914,216.395767 
	C854.157349,240.121445 843.434753,264.982941 814.190979,268.088074 
	C801.978577,269.384827 789.144958,269.601776 777.170105,267.304901 
	C756.498352,263.339813 744.203308,248.944122 740.458191,228.630798 
	C735.245056,200.355759 734.638794,171.836807 741.884094,143.710617 
	C748.258606,118.965073 767.932434,104.329735 793.439514,104.922501 
	C802.520813,105.133545 811.936890,104.739731 820.581299,106.994675 
	C837.267456,111.347389 847.395508,123.290527 852.772095,139.527084 
	C856.147949,149.721924 859.132690,183.419388 857.541748,194.939301 
	C831.421631,194.939301 805.199768,194.939301 778.198792,194.939301 
	C778.555115,210.239914 776.554016,225.307251 787.392517,237.531265 
	C789.438965,239.839340 793.336487,240.506180 796.779419,241.936783 
M816.923340,153.720810 
	C815.955200,150.236572 815.132141,146.703781 813.985718,143.279236 
	C812.181274,137.888794 808.646240,134.127884 802.818298,133.325378 
	C796.008789,132.387711 789.568909,132.824905 785.074341,139.242569 
	C779.167480,147.677094 778.059082,157.257202 778.349609,167.123291 
	C778.377380,168.065292 780.357910,169.720825 781.455811,169.740936 
	C792.411255,169.941772 803.372070,169.826019 814.330627,169.901688 
	C817.197266,169.921494 818.182922,168.645493 817.921387,165.939972 
	C817.556274,162.163483 817.288391,158.377563 816.923340,153.720810 
z"/>
<path fill="#733F3F" opacity="1.000000" stroke="none" 
	d="
M1595.972534,137.000000 
	C1595.972534,122.227600 1595.972534,107.955193 1595.972534,93.035217 
	C1587.357910,93.035217 1579.410156,93.037453 1571.462280,93.034470 
	C1565.798218,93.032341 1560.132935,92.949249 1554.470825,93.050766 
	C1551.927246,93.096375 1550.876587,92.146790 1550.896484,89.564369 
	C1550.968506,80.236046 1551.018555,70.905281 1550.872803,61.578632 
	C1550.812256,57.710564 1553.228760,57.889629 1555.827271,57.890881 
	C1578.816772,57.901962 1601.806274,57.893272 1624.795776,57.892838 
	C1643.120728,57.892487 1661.446777,58.003517 1679.769775,57.814922 
	C1683.929321,57.772106 1685.234375,59.086620 1685.121704,63.219528 
	C1684.859009,72.863953 1685.037720,82.520401 1685.037720,92.762016 
	C1683.031128,92.861145 1681.277710,93.019112 1679.524170,93.022758 
	C1668.362549,93.045975 1657.201050,93.030647 1646.039429,93.037231 
	C1639.170410,93.041283 1639.151123,93.048622 1639.148804,99.737671 
	C1639.140259,125.725792 1639.145142,151.713913 1639.144653,177.702026 
	C1639.144043,205.522644 1639.064453,233.343719 1639.223999,261.163422 
	C1639.249023,265.544769 1638.265747,267.315399 1633.455811,267.148804 
	C1622.806885,266.779968 1612.130249,266.824951 1601.477295,267.131897 
	C1596.997803,267.260986 1595.872437,265.766632 1595.887695,261.442902 
	C1596.033203,220.129013 1595.973389,178.814407 1595.972534,137.000000 
z"/>
<path fill="#733F3F" opacity="1.000000" stroke="none" 
	d="
M934.023865,104.889526 
	C946.350281,104.091980 957.742065,105.786842 967.813049,112.401596 
	C982.468689,122.027596 989.135193,136.408752 991.057312,153.367767 
	C991.188293,154.523285 991.082825,155.705948 991.218567,156.860550 
	C992.347168,166.458252 992.356506,166.459137 982.498779,166.462051 
	C974.669006,166.464371 966.839111,166.477707 959.009399,166.455307 
	C952.128479,166.435608 952.571106,166.365341 951.801392,159.733139 
	C951.162537,154.229309 949.988525,148.584854 947.857727,143.503296 
	C944.458862,135.397522 935.025391,132.684586 926.877380,136.234299 
	C917.338013,140.390121 915.006470,148.919571 914.188782,157.738419 
	C912.964783,170.939468 911.967285,184.261078 912.383911,197.483826 
	C912.730042,208.466858 914.663452,219.509811 917.007690,230.283829 
	C918.759094,238.333420 924.790344,241.961029 932.832275,241.940155 
	C940.786804,241.919495 946.747864,238.165421 948.776917,230.377350 
	C950.554932,223.552505 950.985535,216.375961 951.995789,209.352524 
	C952.134460,208.388885 952.183533,207.412354 952.301819,206.144394 
	C965.384155,206.144394 978.283203,206.144394 992.660339,206.144394 
	C991.234070,215.468307 990.739319,224.574615 988.358276,233.157623 
	C981.437866,258.104279 965.678711,268.367676 938.712097,269.064026 
	C927.342834,269.357605 915.887146,270.129761 904.765930,266.082672 
	C892.050659,261.455505 883.791565,252.658478 878.901978,240.344177 
	C871.906372,222.726044 870.860168,204.235107 870.969238,185.585541 
	C871.063660,169.432526 872.654663,153.563293 878.657471,138.319473 
	C885.936768,119.834328 898.933044,108.595146 918.738647,105.773544 
	C923.618042,105.078384 928.608643,105.162949 934.023865,104.889526 
z"/>
<path fill="#733F3F" opacity="1.000000" stroke="none" 
	d="
M1967.003418,183.000000 
	C1967.003296,226.481857 1967.005249,269.463715 1967.000977,312.445557 
	C1967.000244,319.081055 1966.986572,319.101654 1960.604980,319.104950 
	C1941.779541,319.114685 1922.953735,319.032227 1904.129272,319.168610 
	C1900.395752,319.195679 1898.748901,318.305847 1898.908691,314.179901 
	C1899.211060,306.370880 1898.996094,298.541809 1898.996094,289.891571 
	C1906.860962,289.891571 1914.447266,289.894440 1922.033569,289.890747 
	C1929.835449,289.886963 1929.843384,289.884155 1929.843506,282.036163 
	C1929.845215,219.562531 1929.845337,157.088898 1929.840576,94.615265 
	C1929.840088,88.053345 1929.824219,88.045204 1923.383789,88.038185 
	C1915.436035,88.029518 1907.488281,88.036110 1899.273193,88.036110 
	C1899.273193,77.848595 1899.273193,68.252647 1899.273193,58.178387 
	C1900.927734,58.080837 1902.531006,57.905628 1904.134521,57.904064 
	C1923.126465,57.885536 1942.121094,58.065285 1961.108765,57.777325 
	C1966.112549,57.701435 1967.121704,59.401447 1967.101440,64.050369 
	C1966.929199,103.532974 1967.003174,143.016647 1967.003418,183.000000 
z"/>
<path fill="#733F3F" opacity="1.000000" stroke="none" 
	d="
M171.002731,165.000000 
	C171.002960,204.823471 171.083572,244.147293 170.901047,283.469910 
	C170.878372,288.351837 171.929642,290.377625 177.206696,290.001068 
	C183.671814,289.539734 190.197891,290.004974 196.692795,289.857574 
	C199.821014,289.786591 201.236389,290.753418 201.155090,294.101898 
	C200.985306,301.095978 201.008102,308.098846 201.144714,315.094360 
	C201.204636,318.162201 199.945679,319.143738 196.997620,319.132660 
	C177.336212,319.058716 157.674271,319.060425 138.012848,319.132050 
	C135.097519,319.142670 133.590958,318.216736 133.847275,315.125092 
	C133.943268,313.967255 133.844894,312.793793 133.844879,311.627441 
	C133.844025,229.481400 133.842896,147.335342 133.846405,65.189293 
	C133.846725,57.905209 133.860992,57.895889 141.206253,57.894073 
	C159.368362,57.889587 177.531387,57.991333 195.691864,57.820232 
	C199.698120,57.782486 201.353363,58.816181 201.197388,63.101482 
	C200.907059,71.077599 201.114075,79.071823 201.114075,87.874504 
	C191.070450,87.874504 181.375504,87.874504 171.002731,87.874504 
	C171.002731,113.959457 171.002731,139.229736 171.002731,165.000000 
z"/>
<path fill="#733F3F" opacity="1.000000" stroke="none" 
	d="
M1020.881653,148.042816 
	C1020.880005,137.036011 1020.880005,137.035980 1010.325073,137.035614 
	C1007.169128,137.035507 1004.013123,137.035599 1000.427063,137.035599 
	C1000.427063,127.711838 1000.427063,118.663025 1000.427063,108.891830 
	C1002.499084,108.891830 1004.600952,108.893005 1006.702881,108.891640 
	C1020.881653,108.882416 1020.880981,108.882240 1020.881897,94.465538 
	C1020.882446,86.302315 1021.049316,78.134422 1020.816223,69.977913 
	C1020.704895,66.080864 1021.979309,64.749397 1025.933716,64.820992 
	C1037.727295,65.034492 1049.527100,64.897629 1062.008057,64.897629 
	C1062.008057,72.435616 1062.007324,79.539734 1062.008179,86.643852 
	C1062.008789,92.474724 1062.208130,98.314583 1061.942627,104.133278 
	C1061.768555,107.946953 1063.247925,109.116501 1066.873535,108.941574 
	C1071.527100,108.717049 1076.202515,108.988564 1080.864014,108.871094 
	C1083.684937,108.800011 1085.201782,109.573410 1085.133789,112.766418 
	C1084.988281,119.593712 1084.980103,126.428795 1085.137573,133.255569 
	C1085.212402,136.500504 1083.651367,137.129593 1080.854004,137.068909 
	C1074.880371,136.939301 1068.901978,137.029236 1062.350220,137.029236 
	C1062.221680,139.354279 1062.024414,141.276443 1062.022827,143.198792 
	C1062.001587,169.354416 1062.004761,195.510040 1062.013428,221.665680 
	C1062.013916,223.330292 1061.985962,225.009628 1062.182373,226.656937 
	C1063.059692,234.015961 1066.918823,237.524536 1074.357178,237.719391 
	C1077.655884,237.805786 1080.958618,237.733963 1084.688965,237.733963 
	C1084.688965,247.078293 1084.688965,256.761749 1084.688965,267.109558 
	C1075.593750,267.109558 1066.824219,267.211945 1058.058472,267.073975 
	C1052.110352,266.980347 1046.096924,267.028107 1040.237915,266.163635 
	C1030.034790,264.658142 1023.419250,257.611420 1022.064148,247.360611 
	C1021.392029,242.276230 1020.931458,237.123596 1020.912537,231.999832 
	C1020.809753,204.178726 1020.874573,176.356979 1020.881653,148.042816 
z"/>
<path fill="#733F3F" opacity="1.000000" stroke="none" 
	d="
M715.858521,109.962982 
	C715.924927,117.942940 716.048401,125.922905 716.048340,133.902863 
	C716.048035,180.306152 716.018799,226.709442 715.959229,273.692963 
	C715.938904,274.505157 715.911682,274.731079 715.837646,274.950989 
	C715.341980,279.543793 714.995300,284.158569 714.323181,288.725403 
	C712.103027,303.810822 702.708679,312.447906 688.306335,314.833069 
	C676.973877,316.709808 665.332764,316.722748 653.382935,317.596130 
	C653.382935,306.430054 653.382935,296.231567 653.382935,285.839661 
	C655.714539,286.038330 657.854248,286.616486 659.869751,286.327576 
	C672.151367,284.567078 672.213379,281.778534 673.825195,270.764282 
	C674.302673,267.501404 673.958862,264.115570 673.959106,260.786072 
	C673.962646,211.997910 673.960815,163.209747 673.960144,114.421585 
	C673.960083,112.779617 673.960083,111.137642 673.960083,108.982147 
	C687.612732,108.982147 700.866028,108.982147 714.718262,109.199814 
	C715.494690,109.602325 715.675110,109.784157 715.858521,109.962982 
z"/>
<path fill="#733F3F" opacity="1.000000" stroke="none" 
	d="
M1488.996582,146.000000 
	C1488.997070,118.169067 1489.083862,90.837578 1488.908447,63.507782 
	C1488.880737,59.217880 1489.935059,57.663574 1494.454468,57.794102 
	C1505.277832,58.106697 1516.118408,58.015102 1526.947632,57.831459 
	C1530.705322,57.767742 1532.202271,58.755184 1532.195435,62.840633 
	C1532.085327,129.334595 1532.119385,195.828812 1532.103638,262.322968 
	C1532.103271,263.628479 1531.897949,264.933899 1531.755371,266.628967 
	C1517.681030,266.628967 1503.772461,266.628967 1488.996582,266.628967 
	C1488.996582,226.646439 1488.996582,186.573212 1488.996582,146.000000 
z"/>
<path fill="#733F3F" opacity="1.000000" stroke="none" 
	d="
M477.940460,165.013382 
	C477.630707,167.737305 477.141418,170.032211 477.137482,172.327957 
	C477.086731,201.810104 476.989258,231.293289 477.218597,260.773743 
	C477.257629,265.790741 475.948761,267.339996 470.836823,267.159363 
	C459.535278,266.760101 448.209869,267.035217 436.251526,267.035217 
	C436.127625,264.839935 435.925751,262.923645 435.925049,261.007294 
	C435.907654,212.369919 435.997009,163.732178 435.787506,115.095703 
	C435.764862,109.842133 437.456055,108.618462 442.327332,108.793549 
	C451.809479,109.134377 461.313599,108.989319 470.805878,108.854103 
	C474.030762,108.808151 475.304810,109.959923 475.172974,113.201294 
	C474.998901,117.480270 475.130127,121.771675 475.130127,127.502525 
	C477.684326,124.070320 479.431885,121.781845 481.116699,119.448029 
	C489.838104,107.367096 501.899567,103.291725 516.244568,104.957687 
	C517.279053,105.077820 518.953918,106.631683 518.967896,107.539902 
	C519.151611,119.493813 519.090271,131.451477 519.090271,144.476486 
	C512.647644,144.476486 506.732056,144.268341 500.836304,144.521225 
	C489.686676,144.999466 479.680237,153.920334 477.940460,165.013382 
z"/>
<path fill="#744040" opacity="1.000000" stroke="none" 
	d="
M708.885742,55.896461 
	C716.041809,55.967854 716.048340,55.967850 716.053162,62.761623 
	C716.059631,71.907669 716.054810,81.053711 716.054810,90.614655 
	C702.057312,90.614655 688.369751,90.614655 674.320679,90.614655 
	C674.320679,79.065865 674.320679,67.686752 674.320679,55.896221 
	C685.832031,55.896221 697.116211,55.896221 708.885742,55.896461 
z"/>
<path fill="#804A4A" opacity="1.000000" stroke="none" 
	d="
M715.836365,109.738541 
	C715.675110,109.784157 715.494690,109.602325 715.184570,109.278442 
	C715.395508,109.082214 715.649597,109.207115 715.836365,109.738541 
z"/>
<path fill="#804A4A" opacity="1.000000" stroke="none" 
	d="
M715.879150,274.726685 
	C715.911682,274.731079 715.938904,274.505157 715.895752,274.160950 
	C715.872253,274.048737 715.920654,274.502411 715.879150,274.726685 
z"/>
<path fill="#010000" opacity="1.000000" stroke="none" 
	d="
M329.132080,147.658798 
	C329.125854,128.417099 329.125854,109.639168 329.125854,89.397728 
	C339.351532,90.149284 349.095184,90.249969 358.611969,91.770554 
	C365.526581,92.875366 369.440460,98.641212 371.717163,104.992706 
	C374.934967,113.969879 375.040192,123.297859 372.853027,132.445923 
	C370.286011,143.182785 362.389740,149.533997 351.274414,150.576645 
	C345.186707,151.147675 339.073090,151.439362 332.972992,151.882568 
	C330.239105,152.081192 328.896973,150.925781 329.132080,147.658798 
z"/>
<path fill="#010000" opacity="1.000000" stroke="none" 
	d="
M610.933105,187.003418 
	C609.592957,200.653427 609.093262,213.962784 606.691895,226.919678 
	C603.916077,241.896988 590.923218,245.295303 581.479248,239.698059 
	C577.846741,237.545151 574.515015,233.144592 573.268738,229.085724 
	C571.013123,221.739792 569.692444,213.918060 569.309326,206.228821 
	C568.689026,193.776627 568.670776,181.246689 569.312622,168.796722 
	C569.717285,160.948364 570.994446,152.943619 573.287659,145.439102 
	C577.150391,132.798355 593.004150,128.012314 600.961060,137.363235 
	C605.178162,142.319183 607.465881,149.684006 608.608337,156.309036 
	C610.316345,166.214127 610.246521,176.425735 610.933105,187.003418 
z"/>
<path fill="#020101" opacity="1.000000" stroke="none" 
	d="
M816.951050,154.158249 
	C817.288391,158.377563 817.556274,162.163483 817.921387,165.939972 
	C818.182922,168.645493 817.197266,169.921494 814.330627,169.901688 
	C803.372070,169.826019 792.411255,169.941772 781.455811,169.740936 
	C780.357910,169.720825 778.377380,168.065292 778.349609,167.123291 
	C778.059082,157.257202 779.167480,147.677094 785.074341,139.242569 
	C789.568909,132.824905 796.008789,132.387711 802.818298,133.325378 
	C808.646240,134.127884 812.181274,137.888794 813.985718,143.279236 
	C815.132141,146.703781 815.955200,150.236572 816.951050,154.158249 
z"/>
</svg>